# xmcd
# 
# Track frame offsets:
#     150
#     11729
#     36219
#     64428
#     112741
#     123703
#     143177
#     164263
#     185135
#     207010
# 
# Disc length: 3144
# 
# Revision: 1
# Processed by: cddbd v1.5.2PL0 Copyright (c) Steve Scherf et al.
# Submitted via: BonkEnc v1.0.8
# 
DISCID=910c460a
DTITLE=Jim Hall - Enrico Pieranunzi - Duologues
DYEAR=2005
DGENRE=Jazz
TTITLE0=Jim Hall - Enrico Pieranunzi - Duologue 1
TTITLE1=Jim Hall - Enrico Pieranunzi - Careful
TTITLE2=Jim Hall - Enrico Pieranunzi - From E. to C.
TTITLE3=Jim Hall - Enrico Pieranunzi - Our Valentines
TTITLE4=Jim Hall - Enrico Pieranunzi - Duologue 2
TTITLE5=Jim Hall - Enrico Pieranunzi - The Point At Issue
TTITLE6=Jim Hall - Enrico Pieranunzi - Something Tells Me
TTITLE7=Jim Hall - Enrico Pieranunzi - Jimlogue
TTITLE8=Jim Hall - Enrico Pieranunzi - Duologue 3
TTITLE9=Jim Hall - Enrico Pieranunzi - Dreamlogue
EXTD=YEAR: 2005
EXTT0=
EXTT1=
EXTT2=
EXTT3=
EXTT4=
EXTT5=
EXTT6=
EXTT7=
EXTT8=
EXTT9=
PLAYORDER=
